:FULLY-SPECIFIED
:FORCE-ALL-JOINTS-BE-3DOF
:DEGREES
2752
root -5.54874 13.953 -28.4119 1241.45 -65.3228 -161.134
lfemur -58.0917 42.0041 -6.32528
ltibia 65.6292 0 0
lfoot -1.44375 -0.637804 0
ltoes -30.9288 0 0
rfemur -30.8261 -18.2815 21.8151
rtibia 80.8207 0 0
rfoot -33.8662 -24.4579 0
rtoes -13.3032 0 0
lowerback 16.1137 5.77738 0.879275
upperback -3.78875 8.1401 1.55062
thorax -13.388 3.78492 -0.994627
lowerneck -2.52137 9.59533 2.04637
upperneck 7.32777 12.5553 1.9504
head 2.76707 6.33728 0.678761
lclavicle 7.30611e-15 -1.18557e-14 0
lhumerus 3.4394 9.74071 83.8693
lradius 95.4826 0 0
lwrist -18.1963 0 0
lhand -39.9068 387.932 0
lfingers 7.12502 0 0
lthumb -12.8779 -662.485 0
rclavicle 7.30611e-15 -1.18557e-14 0
rhumerus -57.3819 52.137 -109.647
rradius 114.125 0 0
rwrist -85.0006 0 0
rhand 3.74537 -386.659 0
rfingers 7.12502 0 0
rthumb 29.1703 305.63 0
2753
root -5.55932 13.9448 -28.4188 1241.53 -65.3487 -161.188
lfemur -58.2427 42.1057 -6.35635
ltibia 65.8897 0 0
lfoot -1.52881 -0.753973 0
ltoes -30.9721 0 0
rfemur -30.8181 -18.3443 21.7684
rtibia 80.9869 0 0
rfoot -34.0552 -24.4865 0
rtoes -13.3293 0 0
lowerback 16.06 5.78114 0.83863
upperback -3.81197 8.13597 1.54429
thorax -13.3878 3.78655 -0.974036
lowerneck -2.52278 9.59736 2.04872
upperneck 7.36564 12.5574 1.94495
head 2.78074 6.33825 0.678442
lclavicle 1.61245e-14 -1.03935e-14 0
lhumerus 3.43671 9.79052 83.8775
lradius 95.4427 0 0
lwrist -18.2823 0 0
lhand -39.8999 387.918 0
lfingers 7.12502 0 0
lthumb -12.8712 -662.499 0
rclavicle 1.61245e-14 -1.03935e-14 0
rhumerus -57.4189 52.028 -109.68
rradius 114.124 0 0
rwrist -84.9701 0 0
rhand 3.82263 -386.639 0
rfingers 7.12502 0 0
rthumb 29.244 305.663 0
2754
root -5.5699 13.9367 -28.4257 1241.61 -65.3785 -161.237
lfemur -58.4168 42.2205 -6.39166
ltibia 66.1817 0 0
lfoot -1.63068 -0.880313 0
ltoes -31.0373 0 0
rfemur -30.8101 -18.4108 21.7212
rtibia 81.1682 0 0
rfoot -34.2616 -24.5243 0
rtoes -13.3583 0 0
lowerback 16.0021 5.78553 0.794036
upperback -3.83903 8.13196 1.5377
thorax -13.39 3.78851 -0.951409
lowerneck -2.5239 9.59908 2.05077
upperneck 7.40626 12.559 1.94053
head 2.79518 6.33899 0.678558
lclavicle 2.55807e-14 -8.84116e-15 0
lhumerus 3.43634 9.84783 83.8897
lradius 95.3931 0 0
lwrist -18.3754 0 0
lhand -39.8909 387.901 0
lfingers 7.12502 0 0
lthumb -12.8626 -662.516 0
rclavicle 2.55807e-14 -8.84116e-15 0
rhumerus -57.4628 51.9094 -109.721
rradius 114.121 0 0
rwrist -84.9368 0 0
rhand 3.91775 -386.63 0
rfingers 7.12502 0 0
rthumb 29.3348 305.688 0
2755
root -5.58049 13.9286 -28.4326 1241.7 -65.4124 -161.279
lfemur -58.6155 42.3493 -6.43146
ltibia 66.5072 0 0
lfoot -1.75044 -1.01728 0
ltoes -31.126 0 0
rfemur -30.802 -18.481 21.6736
rtibia 81.3655 0 0
rfoot -34.4864 -24.5721 0
rtoes -13.3905 0 0
lowerback 15.94 5.7906 0.745303
upperback -3.87017 8.12809 1.53087
thorax -13.395 3.79082 -0.926649
lowerneck -2.52472 9.60046 2.0525
upperneck 7.44975 12.5601 1.93725
head 2.81042 6.33946 0.679146
lclavicle 3.56982e-14 -7.19613e-15 0
lhumerus 3.43851 9.91309 83.906
lradius 95.3331 0 0
lwrist -18.4758 0 0
lhand -39.8798 387.881 0
lfingers 7.12502 0 0
lthumb -12.8519 -662.535 0
rclavicle 3.56982e-14 -7.19613e-15 0
rhumerus -57.5139 51.7809 -109.77
rradius 114.117 0 0
rwrist -84.9006 0 0
rhand 4.03192 -386.633 0
rfingers 7.12502 0 0
rthumb 29.4439 305.703 0
2756
root -5.59107 13.9204 -28.4395 1241.78 -65.4509 -161.316
lfemur -58.84 42.4928 -6.47598
ltibia 66.8677 0 0
lfoot -1.88918 -1.16533 0
ltoes -31.2398 0 0
rfemur -30.7939 -18.5549 21.6258
rtibia 81.5795 0 0
rfoot -34.7303 -24.6305 0
rtoes -13.4259 0 0
lowerback 15.8735 5.79639 0.69224
upperback -3.90561 8.12439 1.52378
thorax -13.4029 3.79349 -0.899655
lowerneck -2.52519 9.60147 2.05386
upperneck 7.49619 12.5605 1.93521
head 2.82648 6.33965 0.680242
lclavicle 4.65007e-14 -5.4557e-15 0
lhumerus 3.44339 9.98673 83.9267
lradius 95.2619 0 0
lwrist -18.584 0 0
lhand -39.8664 387.858 0
lfingers 7.12502 0 0
lthumb -12.839 -662.556 0
rclavicle 4.65007e-14 -5.4557e-15 0
rhumerus -57.5727 51.6421 -109.828
rradius 114.112 0 0
rwrist -84.8615 0 0
rhand 4.16633 -386.649 0
rfingers 7.12502 0 0
rthumb 29.5724 305.709 0
2757
root -5.60165 13.9123 -28.4464 1241.87 -65.494 -161.345
lfemur -59.0919 42.6518 -6.52547
ltibia 67.265 0 0
lfoot -2.04799 -1.32491 0
ltoes -31.3803 0 0
rfemur -30.7857 -18.6327 21.5779
rtibia 81.8107 0 0
rfoot -34.9941 -24.7002 0
rtoes -13.4648 0 0
lowerback 15.8024 5.80293 0.634657
upperback -3.94561 8.12087 1.51643
thorax -13.4139 3.79656 -0.870329
lowerneck -2.52529 9.60208 2.05483
upperneck 7.5457 12.5602 1.9345
head 2.84337 6.33953 0.681882
lclavicle 5.8012e-14 -3.61719e-15 0
lhumerus 3.45119 10.0692 83.9522
lradius 95.1791 0 0
lwrist -18.7002 0 0
lhand -39.8505 387.833 0
lfingers 7.12502 0 0
lthumb -12.8237 -662.581 0
rclavicle 5.8012e-14 -3.61719e-15 0
rhumerus -57.6396 51.4925 -109.895
rradius 114.105 0 0
rwrist -84.8191 0 0
rhand 4.32218 -386.678 0
rfingers 7.12502 0 0
rthumb 29.7213 305.704 0
2758
root -5.61223 13.9042 -28.4533 1241.95 -65.542 -161.366
lfemur -59.3724 42.827 -6.58018
ltibia 67.7009 0 0
lfoot -2.22796 -1.49649 0
ltoes -31.5491 0 0
rfemur -30.7776 -18.7145 21.5299
rtibia 82.0601 0 0
rfoot -35.2787 -24.7818 0
rtoes -13.5072 0 0
lowerback 15.7265 5.81026 0.572363
upperback -3.99038 8.11758 1.50883
thorax -13.4282 3.80004 -0.838571
lowerneck -2.52499 9.60226 2.05538
upperneck 7.59838 12.5592 1.93523
head 2.86112 6.33908 0.684102
lclavicle 7.02557e-14 -1.67795e-15 0
lhumerus 3.4621 10.161 83.9827
lradius 95.0838 0 0
lwrist -18.8246 0 0
lhand -39.8321 387.805 0
lfingers 7.12502 0 0
lthumb -12.8058 -662.608 0
rclavicle 7.02557e-14 -1.67795e-15 0
rhumerus -57.7151 51.3318 -109.971
rradius 114.097 0 0
rwrist -84.7735 0 0
rhand 4.50067 -386.723 0
rfingers 7.12502 0 0
rthumb 29.892 305.687 0
